<svg width="800" height="800" viewBox="0 0 800 800" fill="none" xmlns="http://www.w3.org/2000/svg">
<rect width="800" height="800" fill="white"/>
<path d="M445.5 470L253 474L445.5 484H595L445.5 470Z" fill="black"/>
<path d="M220.5 456V386.182H250.636C255.818 386.182 260.352 387.125 264.239 389.011C268.125 390.898 271.148 393.614 273.307 397.159C275.466 400.705 276.545 404.955 276.545 409.909C276.545 414.909 275.432 419.125 273.205 422.557C271 425.989 267.898 428.58 263.898 430.33C259.92 432.08 255.273 432.955 249.955 432.955H231.955V418.227H246.136C248.364 418.227 250.261 417.955 251.83 417.409C253.42 416.841 254.636 415.943 255.477 414.716C256.341 413.489 256.773 411.886 256.773 409.909C256.773 407.909 256.341 406.284 255.477 405.034C254.636 403.761 253.42 402.83 251.83 402.239C250.261 401.625 248.364 401.318 246.136 401.318H239.455V456H220.5ZM261.409 423.955L278.864 456H258.273L241.227 423.955H261.409ZM308.864 456.955C303.273 456.955 298.455 455.886 294.409 453.75C290.386 451.591 287.284 448.5 285.102 444.477C282.943 440.432 281.864 435.591 281.864 429.955C281.864 424.545 282.955 419.818 285.136 415.773C287.318 411.727 290.398 408.58 294.375 406.33C298.352 404.08 303.045 402.955 308.455 402.955C312.409 402.955 315.989 403.568 319.193 404.795C322.398 406.023 325.136 407.807 327.409 410.148C329.682 412.466 331.432 415.284 332.659 418.602C333.886 421.92 334.5 425.659 334.5 429.818V434.182H287.727V423.818H317.182C317.159 422.318 316.773 421 316.023 419.864C315.295 418.705 314.307 417.807 313.057 417.17C311.83 416.511 310.432 416.182 308.864 416.182C307.341 416.182 305.943 416.511 304.67 417.17C303.398 417.807 302.375 418.693 301.602 419.83C300.852 420.966 300.455 422.295 300.409 423.818V435C300.409 436.682 300.761 438.182 301.466 439.5C302.17 440.818 303.182 441.852 304.5 442.602C305.818 443.352 307.409 443.727 309.273 443.727C310.568 443.727 311.75 443.545 312.818 443.182C313.909 442.818 314.841 442.295 315.614 441.614C316.386 440.909 316.955 440.068 317.318 439.091H334.5C333.909 442.727 332.511 445.886 330.307 448.568C328.102 451.227 325.182 453.295 321.545 454.773C317.932 456.227 313.705 456.955 308.864 456.955ZM360.997 426.545V456H342.179V403.636H360.043V413.591H360.588C361.724 410.273 363.724 407.67 366.588 405.784C369.474 403.898 372.838 402.955 376.679 402.955C380.384 402.955 383.599 403.807 386.327 405.511C389.077 407.193 391.202 409.511 392.702 412.466C394.224 415.42 394.974 418.795 394.952 422.591V456H376.134V426.545C376.156 423.955 375.497 421.92 374.156 420.443C372.838 418.966 370.997 418.227 368.634 418.227C367.088 418.227 365.736 418.568 364.577 419.25C363.44 419.909 362.565 420.864 361.952 422.114C361.338 423.341 361.02 424.818 360.997 426.545ZM435.469 403.636V417.273H400.969V403.636H435.469ZM407.651 391.091H426.469V439.159C426.469 439.886 426.594 440.5 426.844 441C427.094 441.477 427.48 441.841 428.003 442.091C428.526 442.318 429.196 442.432 430.014 442.432C430.582 442.432 431.241 442.364 431.991 442.227C432.764 442.091 433.332 441.977 433.696 441.886L436.423 455.114C435.582 455.364 434.378 455.67 432.81 456.034C431.264 456.398 429.423 456.636 427.287 456.75C422.969 456.977 419.344 456.534 416.412 455.42C413.48 454.284 411.276 452.5 409.798 450.068C408.321 447.636 407.605 444.591 407.651 440.932V391.091ZM508.057 412.364H488.83C488.693 410.773 488.33 409.33 487.739 408.034C487.17 406.739 486.375 405.625 485.352 404.693C484.352 403.739 483.136 403.011 481.705 402.511C480.273 401.989 478.648 401.727 476.83 401.727C473.648 401.727 470.955 402.5 468.75 404.045C466.568 405.591 464.909 407.807 463.773 410.693C462.659 413.58 462.102 417.045 462.102 421.091C462.102 425.364 462.67 428.943 463.807 431.83C464.966 434.693 466.636 436.852 468.818 438.307C471 439.739 473.625 440.455 476.693 440.455C478.443 440.455 480.011 440.239 481.398 439.807C482.784 439.352 483.989 438.705 485.011 437.864C486.034 437.023 486.864 436.011 487.5 434.83C488.159 433.625 488.602 432.273 488.83 430.773L508.057 430.909C507.83 433.864 507 436.875 505.568 439.943C504.136 442.989 502.102 445.807 499.466 448.398C496.852 450.966 493.614 453.034 489.75 454.602C485.886 456.17 481.398 456.955 476.284 456.955C469.875 456.955 464.125 455.58 459.034 452.83C453.966 450.08 449.955 446.034 447 440.693C444.068 435.352 442.602 428.818 442.602 421.091C442.602 413.318 444.102 406.773 447.102 401.455C450.102 396.114 454.148 392.08 459.239 389.352C464.33 386.602 470.011 385.227 476.284 385.227C480.693 385.227 484.75 385.83 488.455 387.034C492.159 388.239 495.409 390 498.205 392.318C501 394.614 503.25 397.443 504.955 400.807C506.659 404.17 507.693 408.023 508.057 412.364ZM531.52 456.818C528.179 456.818 525.224 456.273 522.656 455.182C520.111 454.068 518.111 452.386 516.656 450.136C515.202 447.886 514.474 445.023 514.474 441.545C514.474 438.682 514.963 436.239 515.94 434.216C516.918 432.17 518.281 430.5 520.031 429.205C521.781 427.909 523.815 426.92 526.134 426.239C528.474 425.557 530.997 425.114 533.702 424.909C536.634 424.682 538.986 424.409 540.759 424.091C542.554 423.75 543.849 423.284 544.645 422.693C545.44 422.08 545.838 421.273 545.838 420.273V420.136C545.838 418.773 545.315 417.727 544.27 417C543.224 416.273 541.884 415.909 540.247 415.909C538.452 415.909 536.986 416.307 535.849 417.102C534.736 417.875 534.065 419.068 533.838 420.682H516.52C516.747 417.5 517.759 414.568 519.554 411.886C521.372 409.182 524.02 407.023 527.497 405.409C530.974 403.773 535.315 402.955 540.52 402.955C544.27 402.955 547.634 403.398 550.611 404.284C553.588 405.148 556.122 406.364 558.213 407.932C560.304 409.477 561.895 411.295 562.986 413.386C564.099 415.455 564.656 417.705 564.656 420.136V456H547.065V448.636H546.656C545.611 450.591 544.338 452.17 542.838 453.375C541.361 454.58 539.668 455.455 537.759 456C535.872 456.545 533.793 456.818 531.52 456.818ZM537.656 444.955C539.088 444.955 540.429 444.659 541.679 444.068C542.952 443.477 543.986 442.625 544.781 441.511C545.577 440.398 545.974 439.045 545.974 437.455V433.091C545.474 433.295 544.94 433.489 544.372 433.67C543.827 433.852 543.236 434.023 542.599 434.182C541.986 434.341 541.327 434.489 540.622 434.625C539.94 434.761 539.224 434.886 538.474 435C537.02 435.227 535.827 435.602 534.895 436.125C533.986 436.625 533.304 437.25 532.849 438C532.418 438.727 532.202 439.545 532.202 440.455C532.202 441.909 532.713 443.023 533.736 443.795C534.759 444.568 536.065 444.955 537.656 444.955ZM573.648 456V403.636H591.92V413.591H592.466C593.42 409.909 594.932 407.216 597 405.511C599.091 403.807 601.534 402.955 604.33 402.955C605.148 402.955 605.955 403.023 606.75 403.159C607.568 403.273 608.352 403.443 609.102 403.67V419.727C608.17 419.409 607.023 419.17 605.659 419.011C604.295 418.852 603.125 418.773 602.148 418.773C600.307 418.773 598.648 419.193 597.17 420.034C595.716 420.852 594.568 422.011 593.727 423.511C592.886 424.989 592.466 426.727 592.466 428.727V456H573.648Z" fill="black"/>
<path d="M69.8333 353.5V375.5C60.8333 362 57.3333 357 53.3333 337C53.3333 337 50.3333 324.5 53.3333 310C56.3333 295.5 60.8333 285 60.8333 285L74.3333 289L99.3333 292L119.833 289L136.833 285L171.333 267.5L222.333 246L257.833 236.5L293.333 230L355.333 227L398.833 234L448.833 246L501.833 272L528.333 289.5L443.333 264.5L403.833 259L348.333 255L300.333 259L260.333 267.5L234.333 277L171.333 306.5L146.833 313L129.333 315H95.3333L77.3333 329L69.8333 353.5Z" fill="#999999"/>
<path d="M739 358.5L695.5 341L658 331.5H623.5H596L569 335.5L535.5 343L502.5 349L466 352L419.5 354.5L383.5 352L348.5 347L307.5 335.5L268 322.5L241 308L271.5 316.5L318 328L366.5 335.5L419.5 338.5L475 335.5L543 321L579 306L621.5 308L658 314L695.5 326.5L719 341L739 358.5Z" fill="#2906DC"/>
</svg>
